<?xml version="1.0" encoding="UTF-8" ?>
<!DOCTYPE svg PUBLIC "-//W3C//DTD SVG 1.1//EN" "http://www.w3.org/Graphics/SVG/1.1/DTD/svg11.dtd">
<svg width="500pt" height="500pt" viewBox="0 0 500 500" version="1.1" xmlns="http://www.w3.org/2000/svg">
<g id="#0f2284ff">
<path fill="#0f2284" opacity="1.00" d=" M 238.68 58.90 C 282.26 53.94 327.36 64.21 364.54 87.47 C 387.97 101.93 408.21 121.42 423.95 143.96 C 442.50 170.92 454.20 202.52 457.77 235.04 C 462.33 276.34 453.78 319.02 433.12 355.12 C 413.95 389.06 384.76 417.35 349.83 434.77 C 325.26 446.88 298.35 454.62 270.92 455.87 C 261.29 457.01 251.61 456.12 241.98 455.53 C 191.53 451.40 143.15 426.70 109.96 388.51 C 89.26 365.26 74.40 336.94 66.65 306.80 C 59.41 279.15 58.49 250.00 63.40 221.87 C 69.67 186.47 85.76 152.87 109.46 125.83 C 121.98 111.51 136.60 99.07 152.56 88.73 C 178.42 72.29 208.22 62.11 238.68 58.90 M 108.36 184.10 C 118.12 184.13 127.87 184.17 137.63 184.08 C 137.58 176.91 137.63 169.75 137.59 162.58 C 127.86 162.60 118.12 162.60 108.39 162.58 C 108.35 169.76 108.39 176.93 108.36 184.10 M 304.53 222.25 C 300.36 214.14 293.48 207.24 284.61 204.53 C 272.08 200.66 257.35 201.65 246.47 209.44 C 237.94 215.57 232.85 225.30 229.98 235.20 C 228.77 227.37 225.75 219.58 219.98 213.98 C 212.15 206.08 200.80 202.94 189.95 202.47 C 175.66 201.90 159.90 203.89 148.87 213.86 C 143.20 218.75 140.30 225.79 137.82 232.66 C 137.36 223.25 137.72 213.83 137.61 204.42 C 127.86 204.42 118.12 204.42 108.38 204.42 C 108.37 241.94 108.39 279.46 108.37 316.99 C 118.11 317.01 127.86 316.99 137.61 317.00 C 137.62 313.04 137.65 309.08 137.50 305.12 C 141.45 311.07 147.48 315.54 154.39 317.40 C 164.06 319.97 174.67 319.70 183.99 315.93 C 193.10 312.36 199.74 304.71 204.63 296.50 C 205.55 304.09 208.22 312.82 215.86 316.12 C 225.50 320.00 236.27 317.97 246.03 315.61 C 246.05 314.84 246.09 313.30 246.10 312.53 C 257.41 320.35 272.47 320.63 285.16 316.36 C 293.80 313.46 300.40 306.52 304.36 298.49 C 304.70 304.67 305.11 310.86 305.98 316.99 C 315.44 317.01 324.90 317.00 334.37 317.00 C 333.65 306.22 333.55 295.43 333.44 284.63 C 335.28 290.32 337.65 295.91 341.28 300.71 C 348.65 310.95 360.76 316.97 373.13 318.41 C 387.01 320.08 402.04 318.79 414.03 311.01 C 422.26 305.77 427.94 297.43 431.63 288.54 C 422.47 287.64 413.28 286.92 404.11 286.11 C 402.34 290.81 399.47 295.46 394.66 297.49 C 386.06 301.15 374.63 300.13 368.33 292.66 C 362.16 285.43 361.17 275.45 360.99 266.32 C 385.07 266.34 409.16 266.33 433.25 266.33 C 433.13 253.72 431.94 240.80 426.79 229.14 C 421.89 217.50 411.91 207.91 399.61 204.55 C 387.04 201.15 373.34 201.69 361.08 206.07 C 347.37 210.97 337.05 223.21 333.37 237.17 C 333.75 212.32 333.43 187.45 333.53 162.60 C 323.79 162.58 314.06 162.61 304.32 162.58 C 304.31 182.47 304.17 202.36 304.53 222.25 M 251.69 166.15 C 252.62 166.37 254.47 166.83 255.40 167.06 C 253.78 174.01 252.29 180.99 250.59 187.92 C 250.36 190.30 247.82 190.89 246.14 192.01 C 249.86 192.01 253.59 192.00 257.31 192.00 L 257.22 190.98 C 256.55 190.97 255.20 190.94 254.52 190.93 C 256.41 182.48 258.41 174.06 260.32 165.62 C 257.43 165.54 254.52 165.54 251.69 166.15 M 151.61 168.19 C 152.58 168.43 154.53 168.91 155.50 169.15 C 153.89 176.27 152.18 183.38 150.61 190.51 C 149.14 190.91 147.67 191.31 146.24 191.83 C 153.13 192.25 160.04 191.88 166.95 192.00 C 167.62 189.24 168.25 186.46 168.70 183.66 C 166.81 185.78 165.51 188.50 163.18 190.20 C 160.83 191.28 158.11 190.77 155.61 190.98 C 156.39 187.33 157.25 183.69 158.14 180.06 C 160.82 180.08 163.49 180.08 166.16 180.09 L 166.21 178.84 C 163.61 178.84 161.01 178.84 158.42 178.85 C 159.19 175.53 159.67 172.11 160.90 168.93 C 163.14 168.76 165.44 168.68 167.64 169.20 C 169.78 170.72 169.42 173.82 170.40 176.01 C 171.33 173.29 171.97 170.47 172.52 167.64 C 165.56 167.89 158.51 167.01 151.61 168.19 M 174.40 179.15 C 173.51 183.21 178.61 184.09 180.91 186.21 C 182.91 187.35 181.66 190.15 179.92 190.86 C 178.40 191.27 176.73 191.30 175.27 190.66 C 173.94 189.25 174.03 187.07 173.33 185.36 C 172.62 187.52 172.01 189.71 171.38 191.90 C 171.90 191.85 172.94 191.74 173.47 191.69 C 176.45 192.37 179.74 192.92 182.64 191.58 C 185.44 190.50 187.25 187.03 185.98 184.18 C 183.97 181.99 180.82 181.27 178.88 179.01 C 178.40 175.19 183.07 174.78 185.72 175.75 C 185.97 176.75 186.46 178.75 186.71 179.75 C 187.52 177.82 188.13 175.83 188.77 173.84 C 188.29 174.05 187.32 174.48 186.84 174.69 C 182.44 173.33 175.76 173.84 174.40 179.15 M 193.19 177.24 C 189.96 180.39 187.95 186.07 190.76 190.07 C 194.92 194.36 202.97 192.62 205.71 187.46 C 202.72 189.09 199.80 192.01 196.08 190.91 C 192.92 188.39 194.63 183.81 195.56 180.57 C 196.39 177.86 198.92 173.79 202.23 175.58 C 202.61 177.11 202.80 178.69 203.21 180.22 C 205.71 181.57 208.48 178.70 206.93 176.28 C 203.23 172.48 196.68 173.78 193.19 177.24 M 208.50 174.89 C 209.30 175.19 210.90 175.79 211.70 176.09 C 210.86 180.06 209.60 183.96 209.20 188.01 C 208.89 190.22 210.67 192.46 212.97 192.40 C 215.95 192.86 218.36 190.78 220.63 189.22 C 220.43 189.91 220.02 191.31 219.82 192.00 C 222.20 192.00 224.58 192.00 226.96 192.00 L 226.89 191.56 C 226.35 191.28 225.28 190.73 224.74 190.46 C 225.59 185.07 227.22 179.84 228.22 174.47 C 225.60 174.57 222.98 174.66 220.38 175.00 C 221.12 175.26 222.58 175.77 223.32 176.03 C 222.27 180.01 221.93 184.29 219.93 187.95 C 218.76 190.22 216.05 190.22 213.83 190.24 C 213.76 184.86 215.57 179.74 216.60 174.52 C 213.89 174.58 211.19 174.64 208.50 174.89 M 235.85 175.79 C 231.57 178.59 229.01 184.77 231.39 189.54 C 235.16 194.54 243.92 192.76 246.39 187.25 C 243.57 188.94 240.85 192.08 237.20 190.90 C 234.65 189.13 235.60 185.71 235.71 183.11 C 239.23 183.03 242.97 183.66 246.34 182.33 C 249.12 181.18 249.19 176.70 246.62 175.28 C 243.33 173.31 238.99 173.73 235.85 175.79 M 263.44 178.25 C 264.59 178.68 265.87 180.53 267.08 179.22 C 268.87 177.95 269.71 175.04 272.20 175.06 C 275.01 176.45 273.27 179.50 273.09 181.82 C 269.35 182.29 264.98 182.30 262.19 185.23 C 260.42 187.13 260.07 191.34 263.13 192.13 C 266.19 193.21 269.23 191.57 271.37 189.47 C 272.22 190.88 272.94 192.84 275.00 192.44 C 277.86 192.62 278.99 189.83 279.81 187.64 C 278.43 188.85 277.14 190.17 275.79 191.42 C 276.01 186.53 278.37 181.91 277.97 177.00 C 276.59 173.62 272.16 173.73 269.15 174.28 C 266.66 174.55 265.01 176.53 263.44 178.25 M 286.34 175.29 C 284.08 176.45 282.51 179.41 283.70 181.85 C 285.68 184.15 288.97 184.84 290.89 187.23 C 291.60 191.04 285.89 192.47 283.71 190.03 C 283.09 188.52 282.81 186.89 282.36 185.34 C 281.64 187.50 281.02 189.70 280.38 191.89 C 280.91 191.84 281.96 191.74 282.49 191.70 C 285.47 192.37 288.74 192.92 291.63 191.59 C 294.44 190.50 296.26 187.02 294.97 184.16 C 292.95 181.98 289.79 181.27 287.87 178.98 C 287.41 175.19 292.04 174.80 294.68 175.72 C 294.94 176.72 295.46 178.72 295.72 179.72 C 296.42 177.96 297.06 176.18 297.73 174.41 C 293.93 174.54 289.82 173.20 286.34 175.29 M 247.71 344.93 C 247.71 347.58 247.72 350.22 247.79 352.87 C 245.64 352.47 243.17 351.50 241.22 353.05 C 238.21 355.02 238.07 359.90 240.91 362.09 C 242.69 363.76 245.25 362.89 247.41 362.75 C 248.73 362.90 250.06 363.04 251.39 363.18 C 251.41 357.10 251.40 351.01 251.40 344.93 C 250.48 344.93 248.63 344.93 247.71 344.93 M 296.00 344.91 C 296.00 347.60 296.00 350.29 296.00 352.98 C 293.99 352.53 291.73 351.53 289.81 352.83 C 286.59 354.61 286.11 359.62 288.99 361.94 C 290.71 363.74 293.32 362.98 295.48 362.71 C 296.87 362.90 298.27 363.04 299.68 363.17 C 299.68 357.11 299.67 351.04 299.69 344.97 C 298.45 344.95 297.22 344.93 296.00 344.91 M 357.34 348.08 C 356.57 349.39 358.60 351.70 359.87 350.80 C 361.91 350.43 361.07 348.01 361.42 346.59 C 360.07 346.98 357.84 346.27 357.34 348.08 M 371.02 345.95 C 370.02 347.54 369.04 349.13 368.12 350.77 C 371.11 350.73 372.72 348.22 374.30 346.07 C 373.48 346.04 371.84 345.98 371.02 345.95 M 142.60 356.03 C 141.42 359.43 144.44 363.31 148.01 363.18 C 151.39 363.55 154.70 360.45 154.25 357.01 C 154.29 354.18 151.60 352.74 149.56 351.41 C 150.75 349.83 151.92 348.23 153.09 346.63 C 152.02 346.61 149.90 346.56 148.84 346.53 C 146.70 349.65 144.06 352.50 142.60 356.03 M 159.35 347.19 C 154.25 350.90 154.59 361.07 161.00 363.13 C 167.33 364.60 170.46 356.35 168.43 351.45 C 167.65 347.50 162.92 344.92 159.35 347.19 M 176.06 363.00 C 177.05 363.00 179.02 363.00 180.01 363.00 C 180.43 361.91 180.85 360.83 181.27 359.74 C 183.38 359.78 185.49 359.83 187.60 359.91 C 187.78 360.67 188.14 362.19 188.32 362.95 C 189.72 362.99 191.13 363.02 192.53 363.06 C 190.35 357.57 188.11 352.11 185.89 346.63 C 185.10 346.61 183.53 346.57 182.74 346.55 C 180.50 352.03 178.29 357.51 176.06 363.00 M 197.28 347.04 C 196.48 348.14 195.78 349.30 195.17 350.52 C 196.41 350.17 197.66 349.82 198.90 349.45 C 200.51 349.87 202.20 350.91 203.87 350.08 C 204.49 348.99 205.05 347.88 205.54 346.73 C 204.29 347.03 203.04 347.35 201.80 347.69 C 200.31 347.38 198.82 346.83 197.28 347.04 M 210.46 352.60 C 207.26 353.59 205.86 357.70 207.60 360.51 C 210.12 364.71 217.88 363.91 218.85 358.86 C 220.12 354.27 214.40 350.75 210.46 352.60 M 220.96 354.07 C 219.36 358.28 224.94 358.30 227.58 359.34 C 227.32 359.73 226.79 360.49 226.53 360.87 C 224.42 359.77 222.23 358.75 219.79 358.72 C 220.70 360.53 221.63 362.95 224.03 363.07 C 226.54 363.47 231.00 363.49 231.12 360.03 C 231.52 356.31 226.59 356.46 224.10 355.53 C 224.61 355.19 225.12 354.85 225.63 354.51 C 227.53 355.24 229.51 355.65 231.54 355.86 C 230.06 351.56 223.70 350.69 220.96 354.07 M 253.78 359.02 C 255.07 364.74 264.04 364.46 265.84 359.12 C 264.93 359.07 263.11 358.97 262.20 358.92 C 261.43 359.61 260.67 360.30 259.91 361.00 C 258.89 360.15 257.89 359.29 256.90 358.42 C 259.99 358.16 263.09 358.12 266.19 358.04 C 265.37 355.98 264.78 353.30 262.35 352.60 C 258.24 350.63 252.38 354.19 253.78 359.02 M 273.48 358.94 C 274.78 364.77 283.80 364.46 285.63 359.07 C 284.77 359.06 283.05 359.04 282.19 359.03 C 281.18 359.46 280.34 360.67 279.15 360.51 C 278.19 359.94 277.38 359.14 276.54 358.43 C 279.65 358.14 282.77 358.13 285.88 358.07 C 285.10 356.08 284.63 353.47 282.31 352.70 C 278.25 350.55 272.18 354.05 273.48 358.94 M 302.36 352.35 C 302.50 355.45 301.93 358.76 303.19 361.70 C 304.53 363.88 307.31 362.87 309.36 362.70 C 310.68 362.88 312.01 363.04 313.34 363.20 C 313.35 359.57 313.35 355.94 313.34 352.31 C 312.44 352.31 310.65 352.30 309.76 352.30 C 309.56 354.68 310.64 361.70 306.37 359.71 C 305.94 357.25 306.06 354.75 305.99 352.27 C 304.78 352.29 303.57 352.32 302.36 352.35 M 316.04 359.93 C 318.17 364.87 325.92 363.96 327.64 359.08 C 326.84 359.07 325.24 359.06 324.43 359.06 C 323.05 359.57 321.59 360.82 320.08 359.95 C 319.28 358.44 319.14 355.70 321.08 355.07 C 323.26 355.73 325.34 356.70 327.61 357.09 C 326.85 354.84 325.48 352.48 322.86 352.24 C 318.52 351.04 314.05 355.68 316.04 359.93 M 344.04 359.94 C 346.19 364.87 353.92 363.95 355.65 359.07 C 354.84 359.07 353.24 359.07 352.44 359.07 C 351.04 359.42 349.52 361.00 348.09 359.91 C 347.23 358.43 347.18 355.70 349.07 355.07 C 351.27 355.69 353.36 356.69 355.61 357.17 C 354.89 354.87 353.51 352.48 350.85 352.23 C 346.51 351.04 342.04 355.69 344.04 359.94 M 367.42 352.52 C 364.36 353.40 362.78 357.05 364.05 359.94 C 366.08 364.75 374.70 364.17 375.58 358.81 C 376.78 354.36 371.33 350.84 367.42 352.52 M 193.94 352.21 C 193.93 355.81 193.93 359.42 193.93 363.04 C 195.15 363.02 196.36 363.00 197.58 362.99 C 197.80 359.93 196.62 355.44 200.68 354.67 C 200.99 357.43 201.11 360.22 201.16 363.00 C 202.41 363.00 203.67 363.00 204.94 363.00 C 204.71 359.74 205.55 356.06 203.68 353.16 C 202.17 351.66 200.04 352.44 198.20 352.56 C 196.78 352.43 195.36 352.32 193.94 352.21 M 332.19 362.90 C 335.25 363.16 338.33 362.77 341.40 363.03 C 341.40 359.49 341.40 355.95 341.40 352.41 C 338.29 352.63 335.13 351.98 332.07 352.57 C 327.75 354.32 327.89 361.21 332.19 362.90 M 357.52 352.32 C 357.50 355.88 357.51 359.44 357.51 363.00 C 358.43 363.00 360.27 363.00 361.19 363.00 C 361.19 359.43 361.19 355.87 361.19 352.30 C 360.27 352.31 358.44 352.32 357.52 352.32 M 377.94 352.21 C 377.93 355.81 377.93 359.41 377.93 363.01 C 379.14 363.00 380.35 363.00 381.56 363.00 C 381.79 359.93 380.66 355.51 384.64 354.61 C 384.98 357.39 385.10 360.19 385.17 363.00 C 386.42 363.00 387.67 363.00 388.94 363.00 C 388.71 359.73 389.56 356.03 387.66 353.14 C 386.14 351.67 384.03 352.43 382.21 352.56 C 380.78 352.43 379.36 352.32 377.94 352.21 Z" />
<path fill="#0f2284" opacity="1.00" d=" M 235.90 181.97 C 237.11 179.12 238.31 175.08 242.10 175.07 C 244.81 176.18 244.28 180.54 241.90 181.75 C 239.92 182.10 237.90 181.96 235.90 181.97 Z" />
<path fill="#0f2284" opacity="1.00" d=" M 266.16 186.11 C 267.25 183.53 270.47 183.61 272.79 182.96 C 272.13 186.12 270.97 190.45 267.03 190.67 C 264.95 190.27 265.67 187.49 266.16 186.11 Z" />
<path fill="#0f2284" opacity="1.00" d=" M 172.88 224.93 C 176.64 221.45 182.17 221.07 187.03 221.39 C 191.45 221.68 195.94 223.84 198.09 227.86 C 201.60 234.21 201.11 241.72 201.21 248.72 C 186.48 249.54 171.35 247.73 156.99 251.89 C 149.27 254.08 142.28 258.72 137.58 265.28 C 137.62 255.41 137.65 245.54 137.56 235.67 C 147.69 236.29 157.82 236.67 167.96 237.18 C 168.77 232.86 169.55 228.10 172.88 224.93 Z" />
<path fill="#0f2284" opacity="1.00" d=" M 367.49 227.47 C 373.89 219.62 386.54 218.68 394.72 224.21 C 402.27 229.55 404.27 239.33 404.98 247.98 C 390.37 248.03 375.76 248.05 361.16 247.97 C 361.54 240.80 362.76 233.18 367.49 227.47 Z" />
<path fill="#0f2284" opacity="1.00" d=" M 275.51 222.74 C 283.05 221.11 291.76 223.08 296.67 229.35 C 303.45 237.94 304.58 249.42 304.70 259.99 C 304.60 271.06 303.37 283.12 296.11 292.01 C 288.35 301.81 271.00 301.54 264.12 290.88 C 257.67 280.91 257.42 268.45 257.55 256.97 C 258.02 247.15 259.01 236.36 265.58 228.51 C 268.14 225.56 271.70 223.54 275.51 222.74 Z" />
<path fill="#0f2284" opacity="1.00" d=" M 172.13 267.19 C 181.49 264.17 191.51 265.29 201.19 264.88 C 201.49 272.61 200.75 280.76 196.35 287.37 C 191.37 295.66 180.72 300.82 171.25 297.77 C 165.56 295.89 162.93 289.65 163.01 284.04 C 162.40 277.30 165.22 269.50 172.13 267.19 Z" />
<path fill="#0f2284" opacity="1.00" d=" M 161.25 350.04 C 164.30 348.69 165.51 352.72 165.27 355.03 C 165.41 357.16 164.18 360.95 161.38 359.79 C 158.83 357.37 158.86 352.55 161.25 350.04 Z" />
<path fill="#0f2284" opacity="1.00" d=" M 182.29 356.71 C 182.97 354.81 183.65 352.92 184.34 351.03 C 184.96 352.92 185.59 354.80 186.22 356.69 C 184.91 356.69 183.60 356.70 182.29 356.71 Z" />
<path fill="#0f2284" opacity="1.00" d=" M 257.08 355.31 C 259.10 354.34 261.17 354.69 262.79 356.19 C 260.85 356.30 258.78 356.46 257.08 355.31 Z" />
<path fill="#0f2284" opacity="1.00" d=" M 278.18 354.87 C 279.09 353.76 282.26 354.64 281.02 356.24 C 280.08 357.28 276.92 356.49 278.18 354.87 Z" />
<path fill="#0f2284" opacity="1.00" d=" M 147.52 355.41 C 149.06 354.47 150.79 356.33 150.83 357.88 C 150.25 359.08 148.78 360.53 147.41 359.57 C 145.42 359.02 145.53 355.88 147.52 355.41 Z" />
<path fill="#0f2284" opacity="1.00" d=" M 211.30 355.51 C 214.99 352.78 217.18 360.37 212.98 360.44 C 210.36 360.59 209.87 357.13 211.30 355.51 Z" />
<path fill="#0f2284" opacity="1.00" d=" M 244.38 355.33 C 247.19 353.79 249.18 359.28 246.05 360.06 C 243.08 361.31 241.43 356.31 244.38 355.33 Z" />
<path fill="#0f2284" opacity="1.00" d=" M 292.40 355.37 C 295.05 353.85 297.52 358.43 294.72 359.89 C 291.82 361.68 289.35 356.77 292.40 355.37 Z" />
<path fill="#0f2284" opacity="1.00" d=" M 334.40 355.24 C 337.77 353.87 339.04 360.14 335.42 360.19 C 332.59 360.63 331.82 356.13 334.40 355.24 Z" />
<path fill="#0f2284" opacity="1.00" d=" M 368.38 355.30 C 371.64 353.47 373.71 359.26 370.44 360.31 C 367.45 361.29 366.05 356.89 368.38 355.30 Z" />
</g>
<g id="#e5b030ff">
<path fill="#e5b030" opacity="1.00" d=" M 108.36 184.10 C 108.39 176.93 108.35 169.76 108.39 162.58 C 118.12 162.60 127.86 162.60 137.59 162.58 C 137.63 169.75 137.58 176.91 137.63 184.08 C 127.87 184.17 118.12 184.13 108.36 184.10 Z" />
<path fill="#e5b030" opacity="1.00" d=" M 304.53 222.25 C 304.17 202.36 304.31 182.47 304.32 162.58 C 314.06 162.61 323.79 162.58 333.53 162.60 C 333.43 187.45 333.75 212.32 333.37 237.17 C 337.05 223.21 347.37 210.97 361.08 206.07 C 373.34 201.69 387.04 201.15 399.61 204.55 C 411.91 207.91 421.89 217.50 426.79 229.14 C 431.94 240.80 433.13 253.72 433.25 266.33 C 409.16 266.33 385.07 266.34 360.99 266.32 C 361.17 275.45 362.16 285.43 368.33 292.66 C 374.63 300.13 386.06 301.15 394.66 297.49 C 399.47 295.46 402.34 290.81 404.11 286.11 C 413.28 286.92 422.47 287.64 431.63 288.54 C 427.94 297.43 422.26 305.77 414.03 311.01 C 402.04 318.79 387.01 320.08 373.13 318.41 C 360.76 316.97 348.65 310.95 341.28 300.71 C 337.65 295.91 335.28 290.32 333.44 284.63 C 333.55 295.43 333.65 306.22 334.37 317.00 C 324.90 317.00 315.44 317.01 305.98 316.99 C 305.11 310.86 304.70 304.67 304.36 298.49 C 300.40 306.52 293.80 313.46 285.16 316.36 C 272.47 320.63 257.41 320.35 246.10 312.53 C 246.09 313.30 246.05 314.84 246.03 315.61 C 236.27 317.97 225.50 320.00 215.86 316.12 C 208.22 312.82 205.55 304.09 204.63 296.50 C 199.74 304.71 193.10 312.36 183.99 315.93 C 174.67 319.70 164.06 319.97 154.39 317.40 C 147.48 315.54 141.45 311.07 137.50 305.12 C 137.65 309.08 137.62 313.04 137.61 317.00 C 127.86 316.99 118.11 317.01 108.37 316.99 C 108.39 279.46 108.37 241.94 108.38 204.42 C 118.12 204.42 127.86 204.42 137.61 204.42 C 137.72 213.83 137.36 223.25 137.82 232.66 C 140.30 225.79 143.20 218.75 148.87 213.86 C 159.90 203.89 175.66 201.90 189.95 202.47 C 200.80 202.94 212.15 206.08 219.98 213.98 C 225.75 219.58 228.77 227.37 229.98 235.20 C 232.85 225.30 237.94 215.57 246.47 209.44 C 257.35 201.65 272.08 200.66 284.61 204.53 C 293.48 207.24 300.36 214.14 304.53 222.25 M 172.88 224.93 C 169.55 228.10 168.77 232.86 167.96 237.18 C 157.82 236.67 147.69 236.29 137.56 235.67 C 137.65 245.54 137.62 255.41 137.58 265.28 C 142.28 258.72 149.27 254.08 156.99 251.89 C 171.35 247.73 186.48 249.54 201.21 248.72 C 201.11 241.72 201.60 234.21 198.09 227.86 C 195.94 223.84 191.45 221.68 187.03 221.39 C 182.17 221.07 176.64 221.45 172.88 224.93 M 367.49 227.47 C 362.76 233.18 361.54 240.80 361.16 247.97 C 375.76 248.05 390.37 248.03 404.98 247.98 C 404.27 239.33 402.27 229.55 394.72 224.21 C 386.54 218.68 373.89 219.62 367.49 227.47 M 275.51 222.74 C 271.70 223.54 268.14 225.56 265.58 228.51 C 259.01 236.36 258.02 247.15 257.55 256.97 C 257.42 268.45 257.67 280.91 264.12 290.88 C 271.00 301.54 288.35 301.81 296.11 292.01 C 303.37 283.12 304.60 271.06 304.70 259.99 C 304.58 249.42 303.45 237.94 296.67 229.35 C 291.76 223.08 283.05 221.11 275.51 222.74 M 172.13 267.19 C 165.22 269.50 162.40 277.30 163.01 284.04 C 162.93 289.65 165.56 295.89 171.25 297.77 C 180.72 300.82 191.37 295.66 196.35 287.37 C 200.75 280.76 201.49 272.61 201.19 264.88 C 191.51 265.29 181.49 264.17 172.13 267.19 Z" />
<path fill="#e5b030" opacity="1.00" d=" M 251.69 166.15 C 254.52 165.54 257.43 165.54 260.32 165.62 C 258.41 174.06 256.41 182.48 254.52 190.93 C 255.20 190.94 256.55 190.97 257.22 190.98 L 257.31 192.00 C 253.59 192.00 249.86 192.01 246.14 192.01 C 247.82 190.89 250.36 190.30 250.59 187.92 C 252.29 180.99 253.78 174.01 255.40 167.06 C 254.47 166.83 252.62 166.37 251.69 166.15 Z" />
<path fill="#e5b030" opacity="1.00" d=" M 151.61 168.19 C 158.51 167.01 165.56 167.89 172.52 167.64 C 171.97 170.47 171.33 173.29 170.40 176.01 C 169.42 173.82 169.78 170.72 167.64 169.20 C 165.44 168.68 163.14 168.76 160.90 168.93 C 159.67 172.11 159.19 175.53 158.42 178.85 C 161.01 178.84 163.61 178.84 166.21 178.84 L 166.16 180.09 C 163.49 180.08 160.82 180.08 158.14 180.06 C 157.25 183.69 156.39 187.33 155.61 190.98 C 158.11 190.77 160.83 191.28 163.18 190.20 C 165.51 188.50 166.81 185.78 168.70 183.66 C 168.25 186.46 167.62 189.24 166.95 192.00 C 160.04 191.88 153.13 192.25 146.24 191.83 C 147.67 191.31 149.14 190.91 150.61 190.51 C 152.18 183.38 153.89 176.27 155.50 169.15 C 154.53 168.91 152.58 168.43 151.61 168.19 Z" />
<path fill="#e5b030" opacity="1.00" d=" M 174.40 179.15 C 175.76 173.84 182.44 173.33 186.84 174.69 C 187.32 174.48 188.29 174.05 188.77 173.84 C 188.13 175.83 187.52 177.82 186.71 179.75 C 186.46 178.75 185.97 176.75 185.72 175.75 C 183.07 174.78 178.40 175.19 178.88 179.01 C 180.82 181.27 183.97 181.99 185.98 184.18 C 187.25 187.03 185.44 190.50 182.64 191.58 C 179.74 192.92 176.45 192.37 173.47 191.69 C 172.94 191.74 171.90 191.85 171.38 191.90 C 172.01 189.71 172.62 187.52 173.33 185.36 C 174.03 187.07 173.94 189.25 175.27 190.66 C 176.73 191.30 178.40 191.27 179.92 190.86 C 181.66 190.15 182.91 187.35 180.91 186.21 C 178.61 184.09 173.51 183.21 174.40 179.15 Z" />
<path fill="#e5b030" opacity="1.00" d=" M 193.19 177.24 C 196.68 173.78 203.23 172.48 206.93 176.28 C 208.48 178.70 205.71 181.57 203.21 180.22 C 202.80 178.69 202.61 177.11 202.23 175.58 C 198.92 173.79 196.39 177.86 195.56 180.57 C 194.63 183.81 192.92 188.39 196.08 190.91 C 199.80 192.01 202.72 189.09 205.71 187.46 C 202.97 192.62 194.92 194.36 190.76 190.07 C 187.95 186.07 189.96 180.39 193.19 177.24 Z" />
<path fill="#e5b030" opacity="1.00" d=" M 208.50 174.89 C 211.19 174.64 213.89 174.58 216.60 174.52 C 215.57 179.74 213.76 184.86 213.83 190.24 C 216.05 190.22 218.76 190.22 219.93 187.95 C 221.93 184.29 222.27 180.01 223.32 176.03 C 222.58 175.77 221.12 175.26 220.38 175.00 C 222.98 174.66 225.60 174.57 228.22 174.47 C 227.22 179.84 225.59 185.07 224.74 190.46 C 225.28 190.73 226.35 191.28 226.89 191.56 L 226.96 192.00 C 224.58 192.00 222.20 192.00 219.82 192.00 C 220.02 191.31 220.43 189.91 220.63 189.22 C 218.36 190.78 215.95 192.86 212.97 192.40 C 210.67 192.46 208.89 190.22 209.20 188.01 C 209.60 183.96 210.86 180.06 211.70 176.09 C 210.90 175.79 209.30 175.19 208.50 174.89 Z" />
<path fill="#e5b030" opacity="1.00" d=" M 235.85 175.79 C 238.99 173.73 243.33 173.31 246.62 175.28 C 249.19 176.70 249.12 181.18 246.34 182.33 C 242.97 183.66 239.23 183.03 235.71 183.11 C 235.60 185.71 234.65 189.13 237.20 190.90 C 240.85 192.08 243.57 188.94 246.39 187.25 C 243.92 192.76 235.16 194.54 231.39 189.54 C 229.01 184.77 231.57 178.59 235.85 175.79 M 235.90 181.97 C 237.90 181.96 239.92 182.10 241.90 181.75 C 244.28 180.54 244.81 176.18 242.10 175.07 C 238.31 175.08 237.11 179.12 235.90 181.97 Z" />
<path fill="#e5b030" opacity="1.00" d=" M 263.44 178.25 C 265.01 176.53 266.66 174.55 269.15 174.28 C 272.16 173.73 276.59 173.62 277.97 177.00 C 278.37 181.91 276.01 186.53 275.79 191.42 C 277.14 190.17 278.43 188.85 279.81 187.64 C 278.99 189.83 277.86 192.62 275.00 192.44 C 272.94 192.84 272.22 190.88 271.37 189.47 C 269.23 191.57 266.19 193.21 263.13 192.13 C 260.07 191.34 260.42 187.13 262.19 185.23 C 264.98 182.30 269.35 182.29 273.09 181.82 C 273.27 179.50 275.01 176.45 272.20 175.06 C 269.71 175.04 268.87 177.95 267.08 179.22 C 265.87 180.53 264.59 178.68 263.44 178.25 M 266.16 186.11 C 265.67 187.49 264.95 190.27 267.03 190.67 C 270.97 190.45 272.13 186.12 272.79 182.96 C 270.47 183.61 267.25 183.53 266.16 186.11 Z" />
<path fill="#e5b030" opacity="1.00" d=" M 286.34 175.29 C 289.82 173.20 293.93 174.54 297.73 174.41 C 297.06 176.18 296.42 177.96 295.72 179.72 C 295.46 178.72 294.94 176.72 294.68 175.72 C 292.04 174.80 287.41 175.19 287.87 178.98 C 289.79 181.27 292.95 181.98 294.97 184.16 C 296.26 187.02 294.44 190.50 291.63 191.59 C 288.74 192.92 285.47 192.37 282.49 191.70 C 281.96 191.74 280.91 191.84 280.38 191.89 C 281.02 189.70 281.64 187.50 282.36 185.34 C 282.81 186.89 283.09 188.52 283.71 190.03 C 285.89 192.47 291.60 191.04 290.89 187.23 C 288.97 184.84 285.68 184.15 283.70 181.85 C 282.51 179.41 284.08 176.45 286.34 175.29 Z" />
<path fill="#e5b030" opacity="1.00" d=" M 247.71 344.93 C 248.63 344.93 250.48 344.93 251.40 344.93 C 251.40 351.01 251.41 357.10 251.39 363.18 C 250.06 363.04 248.73 362.90 247.41 362.75 C 245.25 362.89 242.69 363.76 240.91 362.09 C 238.07 359.90 238.21 355.02 241.22 353.05 C 243.17 351.50 245.64 352.47 247.79 352.87 C 247.72 350.22 247.71 347.58 247.71 344.93 M 244.38 355.33 C 241.43 356.31 243.08 361.31 246.05 360.06 C 249.18 359.28 247.19 353.79 244.38 355.33 Z" />
<path fill="#e5b030" opacity="1.00" d=" M 296.00 344.91 C 297.22 344.93 298.45 344.95 299.69 344.97 C 299.67 351.04 299.68 357.11 299.68 363.17 C 298.27 363.04 296.87 362.90 295.48 362.71 C 293.32 362.98 290.71 363.74 288.99 361.94 C 286.11 359.62 286.59 354.61 289.81 352.83 C 291.73 351.53 293.99 352.53 296.00 352.98 C 296.00 350.29 296.00 347.60 296.00 344.91 M 292.40 355.37 C 289.35 356.77 291.82 361.68 294.72 359.89 C 297.52 358.43 295.05 353.85 292.40 355.37 Z" />
<path fill="#e5b030" opacity="1.00" d=" M 357.34 348.08 C 357.84 346.27 360.07 346.98 361.42 346.59 C 361.07 348.01 361.91 350.43 359.87 350.80 C 358.60 351.70 356.57 349.39 357.34 348.08 Z" />
<path fill="#e5b030" opacity="1.00" d=" M 371.02 345.95 C 371.84 345.98 373.48 346.04 374.30 346.07 C 372.72 348.22 371.11 350.73 368.12 350.77 C 369.04 349.13 370.02 347.54 371.02 345.95 Z" />
<path fill="#e5b030" opacity="1.00" d=" M 142.60 356.03 C 144.06 352.50 146.70 349.65 148.84 346.53 C 149.90 346.56 152.02 346.61 153.09 346.63 C 151.92 348.23 150.75 349.83 149.56 351.41 C 151.60 352.74 154.29 354.18 154.25 357.01 C 154.70 360.45 151.39 363.55 148.01 363.18 C 144.44 363.31 141.42 359.43 142.60 356.03 M 147.52 355.41 C 145.53 355.88 145.42 359.02 147.41 359.57 C 148.78 360.53 150.25 359.08 150.83 357.88 C 150.79 356.33 149.06 354.47 147.52 355.41 Z" />
<path fill="#e5b030" opacity="1.00" d=" M 159.35 347.19 C 162.92 344.92 167.65 347.50 168.43 351.45 C 170.46 356.35 167.33 364.60 161.00 363.13 C 154.59 361.07 154.25 350.90 159.35 347.19 M 161.25 350.04 C 158.86 352.55 158.83 357.37 161.38 359.79 C 164.18 360.95 165.41 357.16 165.27 355.03 C 165.51 352.72 164.30 348.69 161.25 350.04 Z" />
<path fill="#e5b030" opacity="1.00" d=" M 176.06 363.00 C 178.29 357.51 180.50 352.03 182.74 346.55 C 183.53 346.57 185.10 346.61 185.89 346.63 C 188.11 352.11 190.35 357.57 192.53 363.06 C 191.13 363.02 189.72 362.99 188.32 362.95 C 188.14 362.19 187.78 360.67 187.60 359.91 C 185.49 359.83 183.38 359.78 181.27 359.74 C 180.85 360.83 180.43 361.91 180.01 363.00 C 179.02 363.00 177.05 363.00 176.06 363.00 M 182.29 356.71 C 183.60 356.70 184.91 356.69 186.22 356.69 C 185.59 354.80 184.96 352.92 184.34 351.03 C 183.65 352.92 182.97 354.81 182.29 356.71 Z" />
<path fill="#e5b030" opacity="1.00" d=" M 197.28 347.04 C 198.82 346.83 200.31 347.38 201.80 347.69 C 203.04 347.35 204.29 347.03 205.54 346.73 C 205.05 347.88 204.49 348.99 203.87 350.08 C 202.20 350.91 200.51 349.87 198.90 349.45 C 197.66 349.82 196.41 350.17 195.17 350.52 C 195.78 349.30 196.48 348.14 197.28 347.04 Z" />
<path fill="#e5b030" opacity="1.00" d=" M 210.46 352.60 C 214.40 350.75 220.12 354.27 218.85 358.86 C 217.88 363.91 210.12 364.71 207.60 360.51 C 205.86 357.70 207.26 353.59 210.46 352.60 M 211.30 355.51 C 209.87 357.13 210.36 360.59 212.98 360.44 C 217.18 360.37 214.99 352.78 211.30 355.51 Z" />
<path fill="#e5b030" opacity="1.00" d=" M 220.96 354.07 C 223.70 350.69 230.06 351.56 231.54 355.86 C 229.51 355.65 227.53 355.24 225.63 354.51 C 225.12 354.85 224.61 355.19 224.10 355.53 C 226.59 356.46 231.52 356.31 231.12 360.03 C 231.00 363.49 226.54 363.47 224.03 363.07 C 221.63 362.95 220.70 360.53 219.79 358.72 C 222.23 358.75 224.42 359.77 226.53 360.87 C 226.79 360.49 227.32 359.73 227.58 359.34 C 224.94 358.30 219.36 358.28 220.96 354.07 Z" />
<path fill="#e5b030" opacity="1.00" d=" M 253.78 359.02 C 252.38 354.19 258.24 350.63 262.35 352.60 C 264.78 353.30 265.37 355.98 266.19 358.04 C 263.09 358.12 259.99 358.16 256.90 358.42 C 257.89 359.29 258.89 360.15 259.91 361.00 C 260.67 360.30 261.43 359.61 262.20 358.92 C 263.11 358.97 264.93 359.07 265.84 359.12 C 264.04 364.46 255.07 364.74 253.78 359.02 M 257.08 355.31 C 258.78 356.46 260.85 356.30 262.79 356.19 C 261.17 354.69 259.10 354.34 257.08 355.31 Z" />
<path fill="#e5b030" opacity="1.00" d=" M 273.48 358.94 C 272.18 354.05 278.25 350.55 282.31 352.70 C 284.63 353.47 285.10 356.08 285.88 358.07 C 282.77 358.13 279.65 358.14 276.54 358.43 C 277.38 359.14 278.19 359.94 279.15 360.51 C 280.34 360.67 281.18 359.46 282.19 359.03 C 283.05 359.04 284.77 359.06 285.63 359.07 C 283.80 364.46 274.78 364.77 273.48 358.94 M 278.18 354.87 C 276.92 356.49 280.08 357.28 281.02 356.24 C 282.26 354.64 279.09 353.76 278.18 354.87 Z" />
<path fill="#e5b030" opacity="1.00" d=" M 302.36 352.35 C 303.57 352.32 304.78 352.29 305.99 352.27 C 306.06 354.75 305.94 357.25 306.37 359.71 C 310.64 361.70 309.56 354.68 309.76 352.30 C 310.65 352.30 312.44 352.31 313.34 352.31 C 313.35 355.94 313.35 359.57 313.34 363.20 C 312.01 363.04 310.68 362.88 309.36 362.70 C 307.31 362.87 304.53 363.88 303.19 361.70 C 301.93 358.76 302.50 355.45 302.36 352.35 Z" />
<path fill="#e5b030" opacity="1.00" d=" M 316.04 359.93 C 314.05 355.68 318.52 351.04 322.86 352.24 C 325.48 352.48 326.85 354.84 327.61 357.09 C 325.34 356.70 323.26 355.73 321.08 355.07 C 319.14 355.70 319.28 358.44 320.08 359.95 C 321.59 360.82 323.05 359.57 324.43 359.06 C 325.24 359.06 326.84 359.07 327.64 359.08 C 325.92 363.96 318.17 364.87 316.04 359.93 Z" />
<path fill="#e5b030" opacity="1.00" d=" M 344.04 359.94 C 342.04 355.69 346.51 351.04 350.85 352.23 C 353.51 352.48 354.89 354.87 355.61 357.17 C 353.36 356.69 351.27 355.69 349.07 355.07 C 347.18 355.70 347.23 358.43 348.09 359.91 C 349.52 361.00 351.04 359.42 352.44 359.07 C 353.24 359.07 354.84 359.07 355.65 359.07 C 353.92 363.95 346.19 364.87 344.04 359.94 Z" />
<path fill="#e5b030" opacity="1.00" d=" M 367.42 352.52 C 371.33 350.84 376.78 354.36 375.58 358.81 C 374.70 364.17 366.08 364.75 364.05 359.94 C 362.78 357.05 364.36 353.40 367.42 352.52 M 368.38 355.30 C 366.05 356.89 367.45 361.29 370.44 360.31 C 373.71 359.26 371.64 353.47 368.38 355.30 Z" />
<path fill="#e5b030" opacity="1.00" d=" M 193.94 352.21 C 195.36 352.32 196.78 352.43 198.20 352.56 C 200.04 352.44 202.17 351.66 203.68 353.16 C 205.55 356.06 204.71 359.74 204.94 363.00 C 203.67 363.00 202.41 363.00 201.16 363.00 C 201.11 360.22 200.99 357.43 200.68 354.67 C 196.62 355.44 197.80 359.93 197.58 362.99 C 196.36 363.00 195.15 363.02 193.93 363.04 C 193.93 359.42 193.93 355.81 193.94 352.21 Z" />
<path fill="#e5b030" opacity="1.00" d=" M 332.19 362.90 C 327.89 361.21 327.75 354.32 332.07 352.57 C 335.13 351.98 338.29 352.63 341.40 352.41 C 341.40 355.95 341.40 359.49 341.40 363.03 C 338.33 362.77 335.25 363.16 332.19 362.90 M 334.40 355.24 C 331.82 356.13 332.59 360.63 335.42 360.19 C 339.04 360.14 337.77 353.87 334.40 355.24 Z" />
<path fill="#e5b030" opacity="1.00" d=" M 357.52 352.32 C 358.44 352.32 360.27 352.31 361.19 352.30 C 361.19 355.87 361.19 359.43 361.19 363.00 C 360.27 363.00 358.43 363.00 357.51 363.00 C 357.51 359.44 357.50 355.88 357.52 352.32 Z" />
<path fill="#e5b030" opacity="1.00" d=" M 377.94 352.21 C 379.36 352.32 380.78 352.43 382.21 352.56 C 384.03 352.43 386.14 351.67 387.66 353.14 C 389.56 356.03 388.71 359.73 388.94 363.00 C 387.67 363.00 386.42 363.00 385.17 363.00 C 385.10 360.19 384.98 357.39 384.64 354.61 C 380.66 355.51 381.79 359.93 381.56 363.00 C 380.35 363.00 379.14 363.00 377.93 363.01 C 377.93 359.41 377.93 355.81 377.94 352.21 Z" />
</g>
</svg>
